Coordinates
version=1
nRows=13
nColumns=18
inDegrees=yes

Units are S.I. units (second, meters, Newtons, ...)
Angles are in degrees.

endheader
time	ground_thorax_rot_x	ground_thorax_rot_y	ground_thorax_rot_z	ground_thorax_tx	ground_thorax_ty	ground_thorax_tz	clav_prot	clav_elev	scapula_abduction	scapula_elevation	scapula_upward_rot	scapula_winging	plane_elv	shoulder_elv	axial_rot	elbow_flexion	pro_sup
      3.87000000	      0.64277297	     -4.92153261	     -9.47889278	     -0.00423131	      0.00403036	     -0.00078352	    -42.66236570	     11.70002750	     -0.51397382	     -0.21696853	     79.46228078	    -12.04635069	     41.26662037	     85.98974053	    -10.65961230	      0.00000000	     34.32000000
      3.88000000	      0.81294328	     -4.91443732	     -9.61650889	     -0.00423131	      0.00403036	     -0.00078352	    -42.61065699	     11.69505363	     -0.49107758	     -0.22412005	     79.37817824	    -12.02595740	     41.30599653	     85.82826055	    -10.67247102	      0.00000000	     34.32000000
      3.89000000	      0.58110825	     -5.11205617	     -9.53212290	     -0.00423131	      0.00403036	     -0.00078352	    -42.25511918	     11.64873416	     -0.18195887	     -0.26303198	     78.98502239	    -11.85746321	     41.31226395	     85.36582842	    -10.91803231	      0.00000000	     34.32000000
      3.90000000	      0.85574265	     -5.64695462	     -9.32563589	     -0.00423131	      0.00403036	     -0.00078352	    -41.67341624	     12.03860158	      0.77192762	      0.05831366	     79.05729909	    -11.56522807	     41.05273513	     85.03333875	    -10.86669120	      0.00000000	     34.32000000
      3.91000000	      0.95671110	     -5.89609897	     -9.31633293	     -0.00423131	      0.00403036	     -0.00078352	    -41.36372935	     12.02612018	      1.27291304	      0.07269178	     79.00754950	    -11.38601911	     41.19382655	     84.90041613	    -10.72444572	      0.00000000	     34.32000000
      3.92000000	      0.70222693	     -5.64289010	     -9.57908828	     -0.00423131	      0.00403036	     -0.00078352	    -41.49622936	     11.59311357	      0.84553529	     -0.26952793	     78.61487126	    -11.44603705	     41.75040268	     84.96960954	    -10.36935825	      0.00000000	     34.32000000
      3.93000000	      0.71735418	     -5.66085180	     -9.74216024	     -0.00423131	      0.00403036	     -0.00078352	    -41.47611985	     11.64388842	      0.82216136	     -0.23879001	     78.56061704	    -11.45113021	     41.80835029	     84.86867979	    -10.38354125	      0.00000000	     34.32000000
      3.94000000	      0.63832474	     -5.60575112	     -9.63841770	     -0.00423131	      0.00403036	     -0.00078352	    -41.44284138	     11.91504833	      0.49294174	     -0.08966060	     78.17693609	    -11.53617714	     42.23688028	     84.59217149	    -10.12635591	      0.00000000	     34.32000000
      3.95000000	      0.67630287	     -5.24445388	     -9.58616973	     -0.00423131	      0.00403036	     -0.00078352	    -41.57730467	     12.17647066	     -0.06445932	      0.04560450	     77.86885414	    -11.70622623	     42.58066724	     84.32461264	    -10.40736882	      0.00000000	     34.32000000
      3.96000000	      0.92741652	     -5.72150314	     -9.34970364	     -0.00423131	      0.00403036	     -0.00078352	    -40.91740656	     12.55066635	      1.01206961	      0.36079056	     77.91677145	    -11.37210214	     42.12023455	     83.91927498	    -10.38858410	      0.00000000	     34.32000000
      3.97000000	      0.61866601	     -5.27502316	     -9.61174958	     -0.00423131	      0.00403036	     -0.00078352	    -40.98107766	     12.07372027	      0.60255313	     -0.01491364	     77.38409221	    -11.40524725	     42.38105403	     83.77508331	    -10.59319560	      0.00000000	     34.32000000
      3.98000000	      0.64061054	     -5.37136198	     -9.61449334	     -0.00423131	      0.00403036	     -0.00078352	    -40.75884803	     12.05150019	      0.79261128	     -0.03223298	     77.13688177	    -11.30687412	     42.65178128	     83.44531530	    -10.72212266	      0.00000000	     34.32000000
      3.99000000	      0.61903855	     -5.40903255	     -9.65442136	     -0.00423131	      0.00403036	     -0.00078352	    -40.62093701	     12.01353184	      0.76021230	     -0.07601366	     76.79134979	    -11.26791576	     43.08649953	     83.16403195	    -10.61472263	      0.00000000	     34.32000000
